<svg preserveAspectRatio="none" width="100%" height="100%" overflow="visible" style="display: block;" viewBox="0 0 80 70.75" fill="none" xmlns="http://www.w3.org/2000/svg">
<g id="Container" opacity="0.4">
<path id="Icon" d="M59.75 43.3333L55 38.5833L70.3333 23.25C65.9444 19.9167 61.1667 17.3889 56 15.6667C50.8333 13.9444 45.5 13.0833 40 13.0833C38.3889 13.0833 36.7778 13.1667 35.1667 13.3333C33.5556 13.5 31.9444 13.7222 30.3333 14L24.8333 8.5C27.3333 7.83333 29.8333 7.31944 32.3333 6.95833C34.8333 6.59722 37.3889 6.41667 40 6.41667C47.5556 6.41667 54.7917 7.84722 61.7083 10.7083C68.625 13.5694 74.7222 17.6944 80 23.0833L59.75 43.3333V43.3333M40 53.5833L45.5833 48.0833L16.4167 18.9167C15.25 19.5278 14.1111 20.2083 13 20.9583C11.8889 21.7083 10.7778 22.4722 9.66667 23.25L40 53.5833V53.5833M68.25 70.75L50.3333 52.75L40 63.0833L0 23.0833C1.77778 21.3056 3.625 19.6667 5.54167 18.1667C7.45833 16.6667 9.47222 15.3056 11.5833 14.0833L2.25 4.75L7 0L73 66L68.25 70.75V70.75M42.6667 26.25V26.25V26.25V26.25V26.25V26.25V26.25V26.25M31 33.5V33.5V33.5V33.5V33.5V33.5V33.5" fill="var(--fill-0, #ADAAAA)"/>
</g>
</svg>
